<svg width="16" height="16" viewBox="0 0 16 16" fill="none" xmlns="http://www.w3.org/2000/svg">
<path d="M15.3346 12.6667C15.3346 13.0203 15.1942 13.3594 14.9441 13.6095C14.6941 13.8595 14.3549 14 14.0013 14H2.0013C1.64768 14 1.30854 13.8595 1.05849 13.6095C0.808445 13.3594 0.667969 13.0203 0.667969 12.6667V5.33333C0.667969 4.97971 0.808445 4.64057 1.05849 4.39052C1.30854 4.14048 1.64768 4 2.0013 4H4.66797L6.0013 2H10.0013L11.3346 4H14.0013C14.3549 4 14.6941 4.14048 14.9441 4.39052C15.1942 4.64057 15.3346 4.97971 15.3346 5.33333V12.6667Z" stroke="white" stroke-linecap="round" stroke-linejoin="round"/>
<path d="M7.9987 11.3333C9.47146 11.3333 10.6654 10.1394 10.6654 8.66667C10.6654 7.19391 9.47146 6 7.9987 6C6.52594 6 5.33203 7.19391 5.33203 8.66667C5.33203 10.1394 6.52594 11.3333 7.9987 11.3333Z" stroke="white" stroke-linecap="round" stroke-linejoin="round"/>
</svg>
