<svg width="38" height="38" viewBox="0 0 38 38" fill="none" xmlns="http://www.w3.org/2000/svg">
<rect width="38" height="38" rx="8" fill="black"/>
<path d="M32 10.5C32 9.94772 32.4477 9.5 33 9.5C33.5523 9.5 34 9.94772 34 10.5V29.5H32V10.5Z" fill="white"/>
<path d="M4 10.5C4 9.94772 4.44772 9.5 5 9.5C5.55228 9.5 6 9.94772 6 10.5V29.5H4V10.5Z" fill="white"/>
<path fill-rule="evenodd" clip-rule="evenodd" d="M32.0019 23.4868V11.5H26.4375V23.4957C28.2908 23.4957 30.1485 23.4957 32.0019 23.4957V23.4868Z" fill="white"/>
<path fill-rule="evenodd" clip-rule="evenodd" d="M15.4219 23.4713C18.7361 23.4802 22.0503 23.4891 25.3688 23.4935V17.9095C25.3688 17.6336 25.286 17.3489 25.0418 17.1976C24.8543 17.0863 24.6144 17.0819 24.4182 17.1753C21.6578 18.5013 18.8974 19.8227 16.1414 21.1442C15.6399 21.3978 15.4262 21.8116 15.4262 22.3812V23.4668L15.4219 23.4713Z" fill="white"/>
<path fill-rule="evenodd" clip-rule="evenodd" d="M16.3158 19.856C18.8887 18.6235 21.4659 17.3955 24.0344 16.1541C24.7932 15.7848 25.2947 15.2776 25.3688 14.3832V11.5H15.4219V19.1975C15.4393 19.7314 15.81 20.0473 16.3158 19.856Z" fill="white"/>
<path fill-rule="evenodd" clip-rule="evenodd" d="M14.3378 23.4926V18.8474C14.2724 17.9308 14.0151 17.6728 13.3 17.21L6 12.9297V23.5015C8.77782 23.5015 11.56 23.5015 14.3378 23.5015V23.4926Z" fill="white"/>
<path fill-rule="evenodd" clip-rule="evenodd" d="M14.3378 11.5H6V11.6468C8.50745 13.1196 11.0193 14.5879 13.5267 16.0607C13.941 16.2475 14.3422 16.0073 14.3422 15.5356V11.5H14.3378Z" fill="white"/>
</svg>
