<?xml version="1.0" encoding="utf-8"?>
<!-- Svg Vector Icons : http://www.onlinewebfonts.com/icon -->
<!DOCTYPE svg PUBLIC "-//W3C//DTD SVG 1.1//EN" "http://www.w3.org/Graphics/SVG/1.1/DTD/svg11.dtd">
<svg version="1.1" xmlns="http://www.w3.org/2000/svg" xmlns:xlink="http://www.w3.org/1999/xlink" x="0px" y="0px" viewBox="0 0 256 256" enable-background="new 0 0 256 256" xml:space="preserve">
<metadata> Svg Vector Icons : http://www.onlinewebfonts.com/icon </metadata>
<g><g><g><path fill="#000000" d="M224.4,20.3c-0.6,0.3-1.4,1.1-1.8,1.7c-0.7,1.1-0.8,3.6-0.9,33c-0.1,17.5,0,32.9,0.1,34.3c0.2,1.9,0.6,2.8,1.6,3.8l1.3,1.3h9.1h9.1l1.6-1.6l1.6-1.6V57.1V22.9l-1.3-1.5l-1.3-1.5l-8.9-0.1C227.8,19.7,225.2,19.8,224.4,20.3z"/><path fill="#000000" d="M212,28.6l-1,1.1v27.2c0,15,0.1,27.6,0.3,28c0.5,1.2,2.7,2.1,5.3,2.1h2.3V57.3V27.5h-2.9C213.5,27.5,212.8,27.7,212,28.6z"/><path fill="#000000" d="M145.2,36.1c-2.7,0.6-21.2,8.9-30.3,13.5c-9.1,4.7-14.4,12.5-15.6,23l-0.2,2l2.8,0.9c1.6,0.5,10.2,3.2,19.3,6c9,2.8,16.5,5.1,16.8,5.1c0.2,0,1.7-2.2,3.3-4.8c1.6-2.6,3.8-5.9,5-7.2c2.1-2.3,10-8.8,10.7-8.8c0.2,0,0.6,0.3,0.9,0.7c0.7,0.8,0.8,0.7-4.7,5.1c-2.2,1.8-4.7,4.1-5.6,5.2c-2.7,3.1-8,12.1-8.6,14.4c-1.8,6.7,4,13.5,11,12.8c4.1-0.4,6.3-1.9,10.9-7.6c4.2-5.2,6-6.7,19.3-16.9l4.1-3.1h12h11.9V55.9V35.4l-30.1,0C154.8,35.4,147.4,35.6,145.2,36.1z"/><path fill="#000000" d="M78.2,72.9c-0.6,0.3-1.4,1.1-1.8,1.7c-0.3,0.6-3.1,9.4-6.4,19.6c-3.8,12.3-5.7,19-5.5,19.7c0.8,3-0.4,2.6,47.3,17.5c24.7,7.7,45.4,14.1,45.9,14.1c2.1,0,3.7-1.7,4.7-4.7c3.6-11.2,11.1-35.6,11.1-36.4c0-2.8-1.9-4.2-7.3-5.8l-3-0.8l-0.9,1.3c-2,2.9-5.3,5.6-7.9,6.6c-6.7,2.5-13.7,0.1-17.2-5.9c-1.1-1.9-1.2-2.6-1.2-6.5v-4.3l-5.8-1.8c-38.1-12-48.7-15.2-49.7-15.2C79.9,72.3,78.9,72.6,78.2,72.9z M90.5,91.5c3.6,1.7,5.4,5.4,4.4,9.2c-1,3.9-4,6.1-8,6.1c-6.6,0-10.2-7.5-6.3-13c1.1-1.6,4.3-3.2,6.4-3.2C87.9,90.7,89.4,91.1,90.5,91.5z M124.1,92.1c4.1,1,8.4,4.7,10.7,9.1c1.2,2.3,1.3,3,1.3,7.6c0,4.9,0,5.2-1.6,8c-1.9,3.5-4.7,6.2-8.3,7.8c-2.3,1.1-3.2,1.2-7.2,1.2s-4.9-0.1-7.1-1.2c-3.8-1.8-6.6-4.6-8.4-8.2c-1.4-2.9-1.5-3.4-1.5-7.7s0.1-4.8,1.5-7.7C107.3,93.4,115.2,89.9,124.1,92.1z M154.8,111.7c4.7,2.3,5.7,9.1,2,12.9c-2.6,2.5-6,3.1-9.3,1.5c-5.6-2.8-6.1-10.6-0.9-14C149,110.5,152.1,110.3,154.8,111.7z"/><path fill="#000000" d="M12.4,154.3c-0.8,0.5-1.7,1.5-1.9,2.1c-0.7,1.8-0.6,67.7,0,69c1.3,2.5,1.8,2.6,11.6,2.6h9.2l1.3-1.3c1.3-1.3,1.3-1.5,1.4-5.7c0-2.4,0-17.8,0-34.4l0-30.1l-1.4-1.4l-1.4-1.4l-8.7-0.1C14.6,153.4,13.8,153.4,12.4,154.3z"/><path fill="#000000" d="M37.2,191v29.8l3-0.2c5.2-0.3,4.8,2.2,4.8-29.7v-27.4l-1.2-1.1c-0.9-1-1.6-1.2-3.9-1.2h-2.8V191z"/><path fill="#000000" d="M48.4,191.8l0.1,21.9l5.1,1.8c2.8,1,9.9,4.1,15.7,6.8c18.2,8.8,29.5,13.3,34.3,13.8c2.1,0.2,3.3,0,6.5-1.2c8.9-3.2,54.2-22.2,56.7-23.8c2.5-1.7,4.2-5.4,4-9l-0.2-2.9l6.5-3c7.8-3.6,8.6-4.2,10.1-6.5c4.5-6.7-1-15.9-9.1-15.2c-2,0.2-7.7,2.7-30.1,13.2c-15.8,7.4-28.3,13-29,13c-1.3,0-26.1-3.2-26.3-3.4c0,0,7.5-1,16.8-2.1c9.3-1.1,17.6-2.2,18.4-2.4c3.8-1,6.7-5.3,6.6-9.6c0-3.9-0.9-6.4-3-8.5c-3.4-3.4-3.9-3.4-22.8-1.2c-9,1.1-17.4,1.9-18.5,1.9c-1.2,0-11-1.2-21.9-2.8c-10.9-1.5-19.8-2.8-19.9-2.8C48.3,169.9,48.3,179.8,48.4,191.8z"/></g></g></g>
</svg>