<?xml version="1.0" encoding="utf-8"?>
<!-- Svg Vector Icons : http://www.onlinewebfonts.com/icon -->
<!DOCTYPE svg PUBLIC "-//W3C//DTD SVG 1.1//EN" "http://www.w3.org/Graphics/SVG/1.1/DTD/svg11.dtd">
<svg version="1.1" xmlns="http://www.w3.org/2000/svg" xmlns:xlink="http://www.w3.org/1999/xlink" x="0px" y="0px" viewBox="0 0 256 256" enable-background="new 0 0 256 256" xml:space="preserve">
<metadata> Svg Vector Icons : http://www.onlinewebfonts.com/icon </metadata>
<g><g><g><path fill="#000000" d="M135,40.1c-4.3,1.4-114,55.8-117,58c-2.8,2-5.6,5.9-7.1,9.9c-1.4,3.7-1.3,11,0.2,14.6c0.6,1.4,9.1,18.9,19,38.7c15.9,31.9,18.2,36.4,20.4,38.6c4.5,4.5,11.6,7.1,17.7,6.3c1.6-0.2,2.9-0.5,2.9-0.7s-0.6-1.5-1.2-3c-2.8-5.8-2.7-4.6-2.7-50.4c0-42.6,0-42.6,1.1-46.3c1.6-5.1,4.5-9.8,8.5-13.8c3.9-3.9,7.7-6.2,13.1-8.2l3.8-1.4l41.2-0.2c22.6-0.1,41.2-0.2,41.2-0.3c0-0.9-16.4-33.3-17.6-34.9C153,40.4,143.2,37.4,135,40.1z"/><path fill="#000000" d="M96.8,96.5c-6,1.5-12,6.4-14.7,12.1l-1.4,3v44.7V201l1.4,3c1.7,3.7,5.8,8.1,9.3,10c5.5,3,2.6,2.9,71.7,2.9c69.5,0,66.7,0.1,72.4-3c3.5-1.9,6.9-5.7,8.9-9.9l1.7-3.5v-44.2v-44.2l-1.7-3.5c-2-4.2-5.4-8.1-8.9-9.9c-5.7-3.1-2.8-3-72.4-2.9C115,95.8,98.8,96,96.8,96.5z M230.7,110.3c2.4,1.2,4.2,4.3,4.2,7.4v2.5h-70.7H93.3l0.3-3c0.4-3.3,1.4-5,4-6.8l1.7-1.1h64.8C226.1,109.3,228.9,109.3,230.7,110.3z M234.8,168.9v28.5l-1.2,2c-0.6,1.1-2,2.4-3,3c-1.7,0.9-4.5,1-66.6,1H99.3l-1.7-1.2c-0.9-0.6-2.2-1.8-2.8-2.6c-1.1-1.5-1.1-2-1.2-29.6c-0.1-15.4,0-28.4,0.1-28.8c0.2-0.6,13.2-0.7,70.7-0.7h70.4V168.9L234.8,168.9z"/><path fill="#000000" d="M112.1,167.5c-3.9,1.3-7.7,4.6-9.1,8.1c-0.5,1.1-0.9,3.5-0.9,5.2c-0.1,8,6,14,13.9,13.9c3.6-0.1,6.1-0.9,8.7-3.2l1.8-1.6l1.1,1.2c3,3.2,10.4,4.6,14.7,2.8c2.6-1,6-4.3,7.4-6.8c1.6-3,1.6-9,0-12.1c-2.9-5.5-6.6-7.7-12.6-7.7c-4.2,0-6.3,0.8-8.9,3.3l-1.5,1.4l-1.1-1.1C122.4,167.9,115.8,166.3,112.1,167.5z"/></g></g></g>
</svg>