<svg width="260" height="31" viewBox="0 0 260 31" fill="none" xmlns="http://www.w3.org/2000/svg">
<g clip-path="url(#clip0_1420_1931)">
<path fill-rule="evenodd" clip-rule="evenodd" d="M60.1194 29.3482V2.4082H47.3594V29.3682C51.6094 29.3682 55.8694 29.3682 60.1194 29.3682V29.3482Z" fill="#231815"/>
<path fill-rule="evenodd" clip-rule="evenodd" d="M22.1016 29.308C29.7016 29.328 37.3016 29.348 44.9116 29.358V16.808C44.9116 16.188 44.7216 15.548 44.1616 15.208C43.7316 14.958 43.1816 14.948 42.7316 15.158C36.4016 18.138 30.0716 21.108 23.7516 24.078C22.6016 24.648 22.1116 25.578 22.1116 26.858V29.298L22.1016 29.308Z" fill="#231815"/>
<path fill-rule="evenodd" clip-rule="evenodd" d="M24.1516 21.1882C30.0516 18.4182 35.9616 15.6582 41.8516 12.8682C43.5916 12.0382 44.7416 10.8982 44.9116 8.8882V2.4082H22.1016V19.7082C22.1416 20.9082 22.9916 21.6182 24.1516 21.1882Z" fill="#231815"/>
<path fill-rule="evenodd" clip-rule="evenodd" d="M19.62 29.3474V18.9074C19.47 16.8474 18.88 16.2674 17.24 15.2274L0.5 5.60742V29.3674C6.87 29.3674 13.25 29.3674 19.62 29.3674V29.3474Z" fill="#231815"/>
<path fill-rule="evenodd" clip-rule="evenodd" d="M19.62 2.4082H0.5V2.7382C6.25 6.0482 12.01 9.3482 17.76 12.6582C18.71 13.0782 19.63 12.5382 19.63 11.4782V2.4082H19.62Z" fill="#231815"/>
<path fill-rule="evenodd" clip-rule="evenodd" d="M205.598 24.8598V18.7798H200.378V25.9298C200.378 26.8898 200.668 27.7698 201.348 28.4498C202.028 29.1398 202.918 29.4298 203.878 29.4298H226.878V7.19977H231.808V2.60977H225.168C224.208 2.60977 223.328 2.90977 222.648 3.58977C221.968 4.26977 221.668 5.15977 221.668 6.11977V24.8598H205.608H205.598ZM250.608 13.3298C251.728 13.3298 252.798 13.5398 253.788 13.9298V7.19977H245.948V2.60977H255.498C256.458 2.60977 257.338 2.90977 258.028 3.58977C258.708 4.26977 259.008 5.15977 259.008 6.11977V17.9998H250.858C250.778 17.9998 250.698 17.9998 250.618 17.9998C250.528 17.9998 250.438 17.9998 250.348 17.9998H250.308C248.218 18.1598 246.568 19.9098 246.568 22.0398C246.568 24.2698 248.378 26.0898 250.618 26.0898C252.858 26.0898 254.668 24.2798 254.668 22.0398C254.668 21.1798 254.398 20.3798 253.938 19.7298H259.018C259.218 20.4698 259.328 21.2398 259.328 22.0398C259.328 26.8498 255.428 30.7498 250.618 30.7498C245.808 30.7498 241.908 26.8498 241.908 22.0398C241.908 20.1898 242.488 18.4798 243.468 17.0698C243.418 17.0498 243.368 17.0298 243.308 17.0098C241.908 16.4398 240.708 15.6298 239.808 14.5098C239.168 15.5698 238.268 16.4198 237.068 16.9898C235.448 17.7498 233.738 18.0998 231.948 18.0098L231.048 17.9598V13.3798L232.038 13.4198C233.518 13.4798 234.818 13.0998 235.688 11.8498C236.678 10.4198 236.988 8.66977 236.988 6.95977V2.60977H242.208V6.87977C242.208 8.71977 242.658 10.4598 243.908 11.8398C245.108 13.1498 247.348 13.4398 249.188 13.4398C249.648 13.3598 250.118 13.3298 250.598 13.3298H250.608ZM206.708 2.60977V0.259766H211.928V2.54977C211.988 2.56977 212.058 2.58977 212.118 2.60977H219.428V7.19977H217.118C217.548 8.19977 217.788 9.29977 217.788 10.4598C217.788 15.0198 214.088 18.7198 209.528 18.7198C204.968 18.7198 201.268 15.0198 201.268 10.4598C201.268 9.89977 201.328 9.34977 201.428 8.81977H206.618C206.348 9.29977 206.188 9.85977 206.188 10.4598C206.188 12.2998 207.678 13.7998 209.528 13.7998C211.378 13.7998 212.868 12.3098 212.868 10.4598C212.868 8.81977 211.688 7.45977 210.128 7.17977L207.068 7.15977H201.958V7.13977H200.958H200.008V2.60977H206.718H206.708Z" fill="#231815"/>
<path fill-rule="evenodd" clip-rule="evenodd" d="M183.709 22.9405L186.299 27.4405C186.369 27.5505 186.439 27.6905 186.529 27.8605C186.609 28.0305 186.699 28.2105 186.779 28.4105V22.9405H187.629V29.6105H186.569L183.979 25.1305C183.909 25.0105 183.839 24.8605 183.749 24.6905C183.669 24.5205 183.579 24.3405 183.499 24.1405V29.6005H182.649V22.9305H183.709V22.9405ZM181.349 29.1105C181.049 29.3105 180.709 29.4605 180.309 29.5605C179.909 29.6605 179.499 29.7105 179.079 29.7105C178.639 29.7105 178.239 29.6505 177.889 29.5305C177.539 29.4105 177.239 29.2305 176.999 28.9805C176.759 28.7305 176.569 28.4305 176.429 28.0605C176.299 27.7005 176.229 27.2705 176.229 26.7705V25.7605C176.229 25.2705 176.289 24.8505 176.419 24.4805C176.549 24.1205 176.729 23.8105 176.979 23.5605C177.219 23.3105 177.509 23.1305 177.859 23.0005C178.199 22.8805 178.589 22.8105 179.009 22.8105C179.429 22.8105 179.839 22.8705 180.199 22.9805C180.559 23.0905 180.899 23.2705 181.219 23.5205L180.749 24.2605C180.459 24.0305 180.179 23.8705 179.899 23.7805C179.619 23.6905 179.329 23.6505 179.009 23.6505C178.429 23.6505 177.969 23.8305 177.639 24.1805C177.309 24.5305 177.139 25.1005 177.139 25.8705V26.6405C177.139 27.4105 177.319 27.9705 177.669 28.3305C178.029 28.6805 178.499 28.8605 179.099 28.8605C179.349 28.8605 179.589 28.8405 179.819 28.7905C180.039 28.7405 180.249 28.6805 180.429 28.5905V26.7105H178.949V25.9205H181.349V29.0905V29.1105ZM174.909 29.6105H173.989V22.9405H174.909V29.6105ZM170.409 28.8805C170.889 28.8805 171.239 28.7805 171.479 28.5905C171.719 28.4005 171.839 28.1705 171.839 27.9005V27.7505C171.839 27.6005 171.809 27.4705 171.769 27.3605C171.719 27.2505 171.639 27.1505 171.519 27.0605C171.399 26.9705 171.249 26.9005 171.069 26.8205C170.879 26.7505 170.659 26.6905 170.389 26.6305C170.079 26.5605 169.779 26.4805 169.509 26.3905C169.239 26.3005 168.999 26.1905 168.809 26.0505C168.609 25.9105 168.459 25.7405 168.339 25.5305C168.229 25.3205 168.169 25.0705 168.169 24.7705V24.6005C168.169 24.3705 168.219 24.1505 168.309 23.9405C168.399 23.7305 168.539 23.5405 168.739 23.3705C168.929 23.2005 169.169 23.0705 169.459 22.9705C169.749 22.8705 170.079 22.8205 170.459 22.8205C170.869 22.8205 171.239 22.8705 171.569 22.9705C171.899 23.0705 172.209 23.2105 172.489 23.4005L172.059 24.1105C171.809 23.9405 171.559 23.8205 171.309 23.7505C171.059 23.6805 170.779 23.6405 170.469 23.6405C170.049 23.6405 169.719 23.7305 169.469 23.9205C169.219 24.1105 169.089 24.3305 169.089 24.6005V24.7505C169.089 24.9005 169.119 25.0405 169.189 25.1405C169.259 25.2505 169.359 25.3405 169.489 25.4205C169.619 25.5005 169.779 25.5705 169.969 25.6305C170.159 25.6905 170.379 25.7505 170.629 25.8005C171.039 25.8905 171.389 26.0005 171.659 26.1205C171.939 26.2405 172.159 26.3805 172.319 26.5305C172.489 26.6805 172.609 26.8605 172.679 27.0505C172.749 27.2405 172.789 27.4505 172.789 27.6805V27.8505C172.789 28.1605 172.729 28.4305 172.609 28.6605C172.489 28.8905 172.319 29.0805 172.109 29.2405C171.899 29.4005 171.649 29.5105 171.359 29.5905C171.069 29.6705 170.749 29.7105 170.409 29.7105C169.929 29.7105 169.499 29.6305 169.099 29.4805C168.699 29.3305 168.359 29.1405 168.089 28.9205L168.549 28.1705C168.669 28.2605 168.819 28.3505 168.979 28.4405C169.139 28.5305 169.299 28.6005 169.469 28.6705C169.639 28.7405 169.799 28.7905 169.969 28.8205C170.139 28.8605 170.299 28.8805 170.439 28.8805H170.409ZM166.889 22.9405V23.7305H163.649V25.8005H166.699V26.5905H163.649V28.8305H166.959V29.6205H162.739V22.9505H166.899L166.889 22.9405ZM157.269 28.8005H158.479C158.779 28.8005 159.049 28.7605 159.289 28.6805C159.529 28.6005 159.739 28.4805 159.909 28.3105C160.079 28.1405 160.209 27.9305 160.299 27.6605C160.389 27.3905 160.439 27.0705 160.439 26.7005V25.8405C160.439 25.4605 160.389 25.1405 160.299 24.8805C160.209 24.6105 160.079 24.4005 159.909 24.2305C159.739 24.0605 159.539 23.9405 159.289 23.8605C159.049 23.7805 158.779 23.7405 158.479 23.7405H157.269V28.7905V28.8005ZM158.569 22.9405C159.489 22.9405 160.189 23.1905 160.659 23.6805C161.139 24.1705 161.369 24.8805 161.369 25.8005V26.7505C161.369 27.6805 161.139 28.3805 160.679 28.8705C160.219 29.3605 159.509 29.6105 158.569 29.6105H156.359V22.9405H158.569ZM153.359 28.8605C153.029 29.1805 152.659 29.4005 152.269 29.5305C151.869 29.6505 151.449 29.7105 150.999 29.7105C150.599 29.7105 150.229 29.6505 149.909 29.5305C149.579 29.4105 149.299 29.2305 149.069 28.9805C148.839 28.7305 148.649 28.4305 148.519 28.0605C148.389 27.7005 148.329 27.2705 148.329 26.7705V25.7605C148.329 25.2705 148.389 24.8505 148.519 24.4805C148.649 24.1205 148.829 23.8105 149.069 23.5605C149.309 23.3105 149.589 23.1305 149.919 23.0005C150.249 22.8805 150.609 22.8105 150.999 22.8105C151.459 22.8105 151.869 22.8705 152.209 22.9805C152.559 23.0905 152.889 23.2805 153.199 23.5205L152.729 24.2705C152.429 24.0205 152.139 23.8605 151.859 23.7805C151.589 23.7005 151.299 23.6605 150.989 23.6605C150.739 23.6605 150.499 23.7005 150.289 23.7905C150.079 23.8805 149.889 24.0105 149.729 24.1905C149.569 24.3705 149.449 24.6005 149.359 24.8805C149.269 25.1605 149.229 25.4905 149.229 25.8705V26.6405C149.229 27.0205 149.269 27.3505 149.359 27.6305C149.449 27.9105 149.569 28.1405 149.729 28.3205C149.889 28.5005 150.069 28.6305 150.289 28.7205C150.499 28.8105 150.739 28.8505 150.989 28.8505C151.309 28.8505 151.629 28.8005 151.949 28.7005C152.269 28.6005 152.569 28.4205 152.849 28.1405L153.349 28.8405L153.359 28.8605ZM146.999 29.6105H146.079V22.9405H146.999V29.6105ZM141.929 22.9405V28.8305H145.119V29.6205H141.009V22.9505H141.929V22.9405ZM136.049 23.7205V25.7505H137.229C137.459 25.7505 137.659 25.7405 137.849 25.7105C138.029 25.6905 138.189 25.6405 138.309 25.5605C138.429 25.4905 138.529 25.3805 138.589 25.2505C138.649 25.1205 138.689 24.9505 138.689 24.7405V24.5705C138.689 24.3705 138.659 24.2205 138.599 24.1005C138.539 23.9905 138.449 23.9005 138.319 23.8405C138.189 23.7805 138.029 23.7405 137.839 23.7305C137.649 23.7105 137.419 23.7105 137.159 23.7105H136.039L136.049 23.7205ZM136.049 28.8105H137.449C137.709 28.8105 137.939 28.8005 138.129 28.7705C138.319 28.7405 138.479 28.6905 138.609 28.6205C138.739 28.5505 138.829 28.4505 138.889 28.3205C138.949 28.1905 138.979 28.0305 138.979 27.8305V27.6305C138.979 27.4305 138.949 27.2505 138.899 27.1105C138.839 26.9705 138.749 26.8505 138.609 26.7605C138.469 26.6705 138.299 26.6005 138.069 26.5605C137.849 26.5205 137.569 26.5005 137.239 26.5005H136.049V28.8105ZM135.129 22.9405H137.499C138.909 22.9405 139.619 23.4805 139.619 24.5705V24.7605C139.619 24.9105 139.599 25.0505 139.559 25.1905C139.519 25.3305 139.459 25.4605 139.379 25.5705C139.299 25.6905 139.189 25.7905 139.049 25.8805C138.909 25.9705 138.739 26.0405 138.549 26.0905C138.959 26.1505 139.289 26.3105 139.549 26.5505C139.809 26.8005 139.929 27.1505 139.929 27.6105V27.8405C139.929 28.3905 139.759 28.8205 139.409 29.1305C139.059 29.4405 138.519 29.6005 137.789 29.6005H135.129V22.9305V22.9405ZM133.669 22.9405V26.9405C133.669 27.4505 133.609 27.8805 133.499 28.2305C133.389 28.5805 133.229 28.8705 133.019 29.0905C132.809 29.3105 132.549 29.4705 132.239 29.5705C131.929 29.6705 131.579 29.7205 131.179 29.7205C130.779 29.7205 130.429 29.6705 130.119 29.5705C129.809 29.4705 129.549 29.3105 129.339 29.0905C129.129 28.8705 128.969 28.5805 128.859 28.2305C128.749 27.8805 128.689 27.4505 128.689 26.9405V22.9405H129.609V26.8305C129.609 27.2105 129.639 27.5305 129.699 27.7905C129.759 28.0505 129.859 28.2705 129.989 28.4305C130.119 28.5905 130.279 28.7105 130.479 28.7905C130.679 28.8605 130.909 28.9005 131.169 28.9005C131.429 28.9005 131.669 28.8605 131.859 28.7905C132.059 28.7205 132.219 28.6005 132.349 28.4305C132.479 28.2705 132.579 28.0505 132.639 27.7905C132.699 27.5305 132.729 27.2105 132.729 26.8305V22.9405H133.649H133.669ZM123.979 23.7305V26.2105H125.289C126.249 26.2105 126.729 25.8105 126.729 25.0205V24.8505C126.729 24.4705 126.609 24.1905 126.379 24.0005C126.149 23.8205 125.819 23.7305 125.379 23.7305H123.959H123.979ZM123.059 22.9405H125.449C125.829 22.9405 126.149 22.9905 126.429 23.0805C126.709 23.1805 126.939 23.3105 127.119 23.4805C127.299 23.6505 127.439 23.8505 127.529 24.0905C127.619 24.3205 127.659 24.5805 127.659 24.8505V25.0405C127.659 25.3105 127.609 25.5705 127.519 25.8005C127.419 26.0405 127.279 26.2505 127.099 26.4205C126.909 26.6005 126.689 26.7405 126.409 26.8505C126.139 26.9605 125.819 27.0105 125.449 27.0105H123.979V29.6105H123.059V22.9405ZM119.909 29.1105C119.609 29.3105 119.269 29.4605 118.869 29.5605C118.469 29.6605 118.059 29.7105 117.639 29.7105C117.199 29.7105 116.799 29.6505 116.449 29.5305C116.099 29.4105 115.799 29.2305 115.559 28.9805C115.319 28.7305 115.129 28.4305 114.989 28.0605C114.859 27.7005 114.789 27.2705 114.789 26.7705V25.7605C114.789 25.2705 114.849 24.8505 114.979 24.4805C115.109 24.1205 115.289 23.8105 115.539 23.5605C115.779 23.3105 116.069 23.1305 116.409 23.0005C116.749 22.8805 117.139 22.8105 117.559 22.8105C117.979 22.8105 118.389 22.8705 118.749 22.9805C119.109 23.0905 119.449 23.2705 119.769 23.5205L119.299 24.2605C119.009 24.0305 118.729 23.8705 118.449 23.7805C118.169 23.6905 117.879 23.6505 117.559 23.6505C116.979 23.6505 116.529 23.8305 116.189 24.1805C115.859 24.5305 115.689 25.1005 115.689 25.8705V26.6405C115.689 27.4105 115.869 27.9705 116.219 28.3305C116.569 28.6805 117.049 28.8605 117.649 28.8605C117.899 28.8605 118.139 28.8405 118.369 28.7905C118.599 28.7405 118.799 28.6805 118.979 28.5905V26.7105H117.499V25.9205H119.899V29.0905L119.909 29.1105ZM109.549 22.9405L112.139 27.4405C112.209 27.5505 112.279 27.6905 112.369 27.8605C112.449 28.0305 112.529 28.2105 112.619 28.4105V22.9405H113.469V29.6105H112.409L109.819 25.1305C109.749 25.0105 109.679 24.8605 109.589 24.6905C109.509 24.5205 109.419 24.3405 109.339 24.1405V29.6005H108.489V22.9305H109.549V22.9405ZM104.449 23.6705C104.189 23.6705 103.949 23.7105 103.729 23.7905C103.509 23.8705 103.319 24.0005 103.159 24.1805C102.999 24.3605 102.879 24.5805 102.789 24.8705C102.699 25.1505 102.659 25.4905 102.659 25.8705V26.6805C102.659 27.0705 102.709 27.4005 102.789 27.6805C102.879 27.9605 102.999 28.1905 103.159 28.3605C103.319 28.5405 103.509 28.6705 103.729 28.7505C103.949 28.8305 104.189 28.8805 104.449 28.8805C104.709 28.8805 104.949 28.8405 105.169 28.7505C105.389 28.6705 105.579 28.5405 105.729 28.3605C105.889 28.1805 106.009 27.9605 106.099 27.6805C106.189 27.4005 106.229 27.0605 106.229 26.6805V25.8705C106.229 25.4805 106.179 25.1505 106.099 24.8705C106.009 24.5905 105.889 24.3605 105.729 24.1805C105.569 24.0005 105.379 23.8705 105.169 23.7905C104.949 23.7105 104.709 23.6705 104.449 23.6705ZM104.449 29.7105C104.049 29.7105 103.679 29.6505 103.349 29.5305C103.019 29.4105 102.729 29.2305 102.489 28.9805C102.249 28.7305 102.059 28.4305 101.929 28.0605C101.799 27.7005 101.729 27.2705 101.729 26.7705V25.7605C101.729 25.2705 101.799 24.8505 101.929 24.4805C102.059 24.1205 102.249 23.8105 102.489 23.5605C102.729 23.3105 103.019 23.1305 103.349 23.0005C103.679 22.8805 104.049 22.8105 104.439 22.8105C104.829 22.8105 105.199 22.8705 105.529 23.0005C105.859 23.1205 106.149 23.3105 106.389 23.5605C106.629 23.8105 106.819 24.1105 106.949 24.4805C107.079 24.8405 107.149 25.2705 107.149 25.7605V26.7705C107.149 27.2605 107.079 27.6905 106.949 28.0605C106.819 28.4205 106.629 28.7305 106.389 28.9805C106.149 29.2305 105.859 29.4105 105.529 29.5305C105.199 29.6505 104.829 29.7105 104.439 29.7105H104.449ZM100.549 22.9405V23.7305H97.3087V25.8005H100.359V26.5905H97.3087V28.8305H100.619V29.6205H96.3988V22.9505H100.559L100.549 22.9405ZM92.8087 28.8805C93.2887 28.8805 93.6387 28.7805 93.8787 28.5905C94.1187 28.4005 94.2387 28.1705 94.2387 27.9005V27.7505C94.2387 27.6005 94.2187 27.4705 94.1687 27.3605C94.1187 27.2505 94.0387 27.1505 93.9187 27.0605C93.7987 26.9705 93.6488 26.9005 93.4688 26.8205C93.2787 26.7505 93.0587 26.6905 92.7787 26.6305C92.4687 26.5605 92.1688 26.4805 91.8988 26.3905C91.6287 26.3005 91.3887 26.1905 91.1987 26.0505C90.9987 25.9105 90.8488 25.7405 90.7288 25.5305C90.6188 25.3205 90.5587 25.0705 90.5587 24.7705V24.6005C90.5587 24.3705 90.6087 24.1505 90.6987 23.9405C90.7887 23.7305 90.9287 23.5405 91.1287 23.3705C91.3187 23.2005 91.5587 23.0705 91.8487 22.9705C92.1387 22.8705 92.4687 22.8205 92.8487 22.8205C93.2587 22.8205 93.6287 22.8705 93.9587 22.9705C94.2887 23.0705 94.5987 23.2105 94.8887 23.4005L94.4487 24.1105C94.1987 23.9405 93.9487 23.8205 93.6987 23.7505C93.4487 23.6805 93.1687 23.6405 92.8587 23.6405C92.4387 23.6405 92.1087 23.7305 91.8587 23.9205C91.6087 24.1105 91.4887 24.3305 91.4887 24.6005V24.7505C91.4887 24.9005 91.5187 25.0405 91.5887 25.1405C91.6587 25.2505 91.7587 25.3405 91.8887 25.4205C92.0187 25.5005 92.1788 25.5705 92.3688 25.6305C92.5588 25.6905 92.7787 25.7505 93.0287 25.8005C93.4387 25.8905 93.7887 26.0005 94.0587 26.1205C94.3287 26.2405 94.5588 26.3805 94.7188 26.5305C94.8888 26.6805 95.0088 26.8605 95.0788 27.0505C95.1488 27.2405 95.1888 27.4505 95.1888 27.6805V27.8505C95.1888 28.1605 95.1288 28.4305 95.0088 28.6605C94.8888 28.8905 94.7188 29.0805 94.5088 29.2405C94.2988 29.4005 94.0488 29.5105 93.7588 29.5905C93.4688 29.6705 93.1487 29.7105 92.8087 29.7105C92.3387 29.7105 91.8987 29.6305 91.4987 29.4805C91.0987 29.3305 90.7587 29.1405 90.4887 28.9205L90.9487 28.1705C91.0687 28.2605 91.2187 28.3505 91.3787 28.4405C91.5387 28.5305 91.6988 28.6005 91.8688 28.6705C92.0388 28.7405 92.1988 28.7905 92.3688 28.8205C92.5388 28.8605 92.6987 28.8805 92.8387 28.8805H92.8087ZM85.2387 22.9405L87.8288 27.4405C87.8988 27.5505 87.9687 27.6905 88.0587 27.8605C88.1387 28.0305 88.2287 28.2105 88.3087 28.4105V22.9405H89.1588V29.6105H88.0987L85.5088 25.1305C85.4388 25.0105 85.3687 24.8605 85.2787 24.6905C85.1987 24.5205 85.1187 24.3405 85.0387 24.1405V29.6005H84.1888V22.9305H85.2487L85.2387 22.9405ZM79.2887 26.8605H81.2887L80.7288 25.3005C80.6788 25.1605 80.6387 25.0505 80.5987 24.9405C80.5587 24.8405 80.5287 24.7405 80.4987 24.6405C80.4687 24.5405 80.4388 24.4405 80.3988 24.3405C80.3688 24.2305 80.3287 24.1105 80.2787 23.9505C80.2287 24.1005 80.1888 24.2405 80.1588 24.3405C80.1288 24.4505 80.0987 24.5505 80.0687 24.6405C80.0387 24.7305 80.0087 24.8305 79.9688 24.9305C79.9388 25.0305 79.8887 25.1505 79.8487 25.2905L79.2887 26.8505V26.8605ZM83.2288 29.6105H82.2687L81.5687 27.6505H79.0187L78.3187 29.6105H77.3887L79.8688 22.9405H80.7588L83.2487 29.6105H83.2288ZM76.4088 22.9405V29.6105H75.4887V26.5405H72.3887V29.6105H71.4688V22.9405H72.3887V25.7305H75.4887V22.9405H76.4088Z" fill="#231815"/>
<path fill-rule="evenodd" clip-rule="evenodd" d="M187.918 18.9099L188.158 17.4799C187.638 17.5499 187.028 17.6299 186.348 17.6999C185.668 17.7799 184.978 17.8399 184.288 17.8899C183.588 17.9399 182.918 17.9899 182.278 18.0199C181.638 18.0499 181.078 18.0599 180.618 18.0499C180.378 18.0499 180.218 18.0099 180.148 17.9499C180.078 17.8999 180.038 17.7499 180.038 17.5199V15.4099C180.038 15.1999 180.048 14.9599 180.068 14.6599C180.098 14.3699 180.118 14.1499 180.138 14.0099C179.958 13.9699 179.718 13.9299 179.438 13.8999C179.158 13.8699 178.858 13.8299 178.558 13.7899C178.258 13.7599 177.968 13.7199 177.688 13.6799C177.408 13.6399 177.178 13.6099 176.998 13.5899L176.668 14.2699C177.048 14.3699 177.338 14.4499 177.558 14.5299C177.778 14.5999 177.938 14.6899 178.048 14.7999C178.158 14.9099 178.228 15.0499 178.248 15.2099C178.268 15.3699 178.288 15.5899 178.288 15.8599V18.1099C178.288 18.3799 178.378 18.6099 178.558 18.7999C178.738 18.9899 179.048 19.0799 179.488 19.0599C180.038 19.0199 180.638 18.9899 181.308 18.9699C181.968 18.9499 182.668 18.9299 183.398 18.9199C184.128 18.9099 184.878 18.8999 185.638 18.8999C186.398 18.8999 187.158 18.8999 187.908 18.9199L187.918 18.9099ZM183.268 1.94992C183.558 1.98992 183.878 2.02992 184.238 2.08992C184.598 2.14992 184.948 2.19992 185.298 2.26992C185.658 2.33992 185.988 2.39992 186.308 2.45992C186.628 2.51992 186.918 2.56992 187.158 2.60992C187.138 2.71992 187.108 2.84992 187.088 3.00992C187.068 3.16992 187.038 3.32992 187.018 3.49992C186.988 3.66992 186.978 3.80992 186.958 3.94992C186.958 4.07992 186.938 4.17992 186.938 4.23992V11.7299C186.938 12.0099 186.938 12.3099 186.908 12.6199C186.888 12.9299 186.868 13.2599 186.838 13.5799C186.818 13.8999 186.778 14.2099 186.738 14.4899C186.698 14.7799 186.658 15.0199 186.618 15.2299L185.358 15.4299C185.328 15.2799 185.318 15.0799 185.298 14.8299C185.288 14.5699 185.268 14.2999 185.248 13.9999C185.228 13.6999 185.218 13.3999 185.218 13.1099C185.218 12.8099 185.218 12.5499 185.218 12.3299V4.19992C185.218 3.81992 185.038 3.50992 184.678 3.27992C184.318 3.03992 183.738 2.82992 182.938 2.62992L183.268 1.94992ZM180.438 8.19992C180.438 7.83992 180.368 7.51992 180.248 7.20992C180.118 6.89992 179.948 6.63992 179.728 6.41992C179.508 6.18992 179.258 6.01992 178.958 5.88992C178.668 5.75992 178.358 5.69992 178.028 5.69992C177.698 5.69992 177.368 5.76992 177.068 5.88992C176.768 6.01992 176.508 6.18992 176.288 6.41992C176.068 6.63992 175.898 6.90992 175.768 7.20992C175.638 7.51992 175.578 7.83992 175.578 8.19992C175.578 8.55992 175.638 8.89992 175.768 9.20992C175.898 9.50992 176.068 9.77992 176.288 9.99992C176.508 10.2199 176.768 10.3899 177.068 10.5099C177.368 10.6299 177.688 10.6899 178.028 10.6899C178.368 10.6899 178.688 10.6299 178.978 10.5099C179.268 10.3899 179.528 10.2199 179.748 9.99992C179.968 9.77992 180.138 9.51992 180.258 9.20992C180.378 8.89992 180.438 8.56992 180.438 8.19992ZM178.808 4.89992C179.318 4.96992 179.788 5.10992 180.198 5.29992C180.608 5.49992 180.968 5.73992 181.278 6.03992C181.588 6.33992 181.818 6.67992 181.978 7.06992C182.138 7.44992 182.228 7.85992 182.228 8.28992C182.228 8.77992 182.118 9.22992 181.908 9.65992C181.698 10.0799 181.398 10.4399 181.028 10.7499C180.648 11.0599 180.208 11.2999 179.688 11.4699C179.168 11.6499 178.618 11.7399 178.018 11.7399C177.418 11.7399 176.848 11.6499 176.328 11.4699C175.808 11.2899 175.368 11.0499 174.988 10.7499C174.608 10.4399 174.318 10.0799 174.108 9.65992C173.898 9.23992 173.798 8.77992 173.798 8.28992C173.798 7.83992 173.888 7.40992 174.068 7.01992C174.248 6.61992 174.498 6.27992 174.828 5.97992C175.148 5.67992 175.538 5.42992 175.988 5.23992C176.438 5.04992 176.928 4.92992 177.468 4.87992C177.448 4.71992 177.378 4.59992 177.268 4.50992C177.158 4.41992 176.958 4.32992 176.688 4.24992L176.998 3.71992C177.128 3.73992 177.288 3.77992 177.478 3.80992C177.658 3.84992 177.848 3.88992 178.038 3.92992C178.228 3.96992 178.408 4.00992 178.598 4.04992C178.778 4.07992 178.948 4.11992 179.088 4.15992C179.048 4.25992 179.008 4.36992 178.958 4.48992C178.908 4.60992 178.868 4.75992 178.828 4.92992L178.808 4.89992ZM168.628 14.3499V10.5699H171.368C171.658 10.5699 171.918 10.5699 172.138 10.5899L172.298 9.09992C172.018 9.15992 171.718 9.20992 171.408 9.24992C171.088 9.28992 170.768 9.32992 170.448 9.36992C170.128 9.40992 169.808 9.43992 169.498 9.46992C169.188 9.49992 168.898 9.51992 168.628 9.52992V4.22992C168.628 4.16992 168.628 4.06992 168.648 3.93992C168.658 3.80992 168.678 3.65992 168.688 3.48992C168.708 3.31992 168.728 3.15992 168.758 2.99992C168.788 2.83992 168.808 2.70992 168.828 2.59992C168.598 2.55992 168.328 2.50992 168.008 2.44992C167.688 2.38992 167.358 2.32992 166.998 2.25992C166.648 2.18992 166.288 2.13992 165.928 2.07992C165.568 2.02992 165.238 1.97992 164.928 1.93992L164.658 2.61992C165.458 2.81992 166.038 3.02992 166.388 3.26992C166.738 3.50992 166.908 3.81992 166.908 4.18992V15.6599C166.908 16.0099 166.908 16.3899 166.908 16.7799C166.908 17.1799 166.928 17.5599 166.948 17.9299C166.968 18.2999 166.978 18.6499 166.998 18.9799C167.018 19.3099 167.038 19.5699 167.068 19.7699L168.328 19.5999C168.378 19.3299 168.418 18.9799 168.458 18.5299C168.498 18.0799 168.528 17.6199 168.548 17.1199C168.568 16.6299 168.588 16.1399 168.608 15.6399C168.618 15.1499 168.628 14.7099 168.628 14.3299V14.3499ZM161.778 10.2999C162.418 10.8199 163.108 11.3599 163.828 11.9199C164.548 12.4699 165.328 13.0099 166.158 13.5199L164.828 14.7099C164.208 14.0499 163.608 13.4199 163.018 12.8299C162.438 12.2299 161.818 11.6199 161.168 10.9799C160.368 11.8699 159.488 12.6799 158.528 13.4099C157.568 14.1399 156.578 14.7799 155.538 15.3299L155.058 14.7599C155.898 14.2399 156.708 13.6399 157.478 12.9599C158.248 12.2799 158.958 11.5699 159.598 10.8199C160.238 10.0699 160.788 9.29992 161.258 8.49992C161.728 7.70992 162.078 6.91992 162.308 6.13992C162.128 6.13992 161.898 6.13992 161.638 6.15992C161.368 6.16992 161.088 6.17992 160.798 6.19992C160.508 6.20992 160.228 6.21992 159.958 6.23992C159.688 6.24992 159.468 6.25992 159.298 6.25992C159.168 6.25992 158.988 6.26992 158.768 6.28992C158.548 6.30992 158.318 6.33992 158.068 6.35992C157.818 6.37992 157.568 6.40992 157.308 6.43992C157.048 6.46992 156.818 6.50992 156.618 6.53992L155.668 5.03992C155.828 5.05992 156.028 5.08992 156.268 5.11992C156.508 5.14992 156.768 5.17992 157.038 5.19992C157.308 5.22992 157.568 5.24992 157.828 5.26992C158.088 5.28992 158.328 5.29992 158.528 5.29992C158.968 5.29992 159.438 5.29992 159.948 5.27992C160.448 5.26992 160.948 5.23992 161.448 5.19992C161.938 5.16992 162.418 5.11992 162.858 5.05992C163.308 4.99992 163.708 4.92992 164.048 4.85992L164.638 5.38992C164.318 6.28992 163.918 7.14992 163.438 7.95992C162.958 8.77992 162.398 9.55992 161.768 10.2999H161.778ZM150.458 4.19992C150.458 3.81992 150.278 3.51992 149.918 3.27992C149.558 3.03992 148.978 2.82992 148.178 2.62992L148.488 1.94992C148.778 1.98992 149.098 2.02992 149.458 2.08992C149.808 2.14992 150.158 2.19992 150.518 2.26992C150.868 2.33992 151.208 2.39992 151.528 2.45992C151.848 2.51992 152.128 2.56992 152.378 2.60992C152.358 2.71992 152.328 2.84992 152.308 3.00992C152.278 3.16992 152.258 3.32992 152.238 3.48992C152.218 3.64992 152.208 3.79992 152.198 3.93992C152.188 4.06992 152.178 4.16992 152.178 4.22992V14.3599C152.178 14.7399 152.178 15.1699 152.148 15.6699C152.128 16.1599 152.108 16.6499 152.078 17.1499C152.048 17.6399 152.008 18.1099 151.978 18.5499C151.948 18.9999 151.898 19.3499 151.848 19.6199L150.628 19.7899C150.608 19.5899 150.578 19.3299 150.558 18.9999C150.538 18.6699 150.528 18.3199 150.508 17.9499C150.488 17.5799 150.478 17.1999 150.468 16.7999C150.468 16.3999 150.468 16.0299 150.468 15.6799V12.1499C149.908 12.3699 149.258 12.5999 148.528 12.8399C147.798 13.0799 147.048 13.2999 146.278 13.5099C145.508 13.7199 144.768 13.9099 144.038 14.0799C143.308 14.2499 142.668 14.3699 142.118 14.4399C141.498 14.5399 141.048 14.4599 140.768 14.2099C140.488 13.9599 140.348 13.5399 140.348 12.9599V7.63992C140.348 7.41992 140.328 7.22992 140.288 7.05992C140.258 6.88992 140.178 6.74992 140.068 6.63992C139.958 6.51992 139.798 6.41992 139.588 6.32992C139.368 6.23992 139.088 6.14992 138.738 6.04992L139.048 5.36992C139.748 5.47992 140.478 5.54992 141.268 5.57992C142.058 5.60992 142.838 5.60992 143.628 5.57992C144.418 5.54992 145.178 5.48992 145.928 5.41992C146.678 5.33992 147.358 5.24992 147.968 5.13992L147.678 6.54992C146.558 6.49992 145.528 6.48992 144.588 6.50992C143.658 6.52992 142.818 6.57992 142.088 6.63992V12.5899C142.088 12.7999 142.118 12.9399 142.188 13.0099C142.258 13.0799 142.358 13.1099 142.508 13.0999C142.938 13.0599 143.478 12.9899 144.138 12.8899C144.798 12.7899 145.488 12.6599 146.218 12.4999C146.948 12.3399 147.688 12.1699 148.438 11.9699C149.188 11.7799 149.868 11.5699 150.478 11.3699V4.19992H150.458ZM133.338 16.2599C133.338 16.5899 133.278 16.8899 133.168 17.1699C133.048 17.4399 132.898 17.6799 132.688 17.8799C132.488 18.0799 132.248 18.2399 131.978 18.3599C131.708 18.4799 131.418 18.5299 131.108 18.5299C130.798 18.5299 130.538 18.4699 130.258 18.3599C129.988 18.2399 129.748 18.0899 129.548 17.8799C129.348 17.6799 129.188 17.4399 129.068 17.1699C128.948 16.8999 128.888 16.5899 128.888 16.2599C128.888 15.9299 128.948 15.6399 129.068 15.3599C129.188 15.0799 129.348 14.8399 129.548 14.6399C129.748 14.4399 129.988 14.2799 130.258 14.1599C130.528 14.0499 130.818 13.9899 131.108 13.9899C131.418 13.9899 131.698 14.0499 131.968 14.1599C132.238 14.2799 132.468 14.4299 132.668 14.6399C132.868 14.8399 133.028 15.0799 133.158 15.3599C133.278 15.6399 133.338 15.9399 133.338 16.2599ZM131.888 13.2199C131.928 13.0599 131.968 12.9099 132.018 12.7799C132.068 12.6499 132.108 12.5299 132.148 12.4299C132.008 12.3899 131.838 12.3499 131.648 12.3099C131.458 12.2699 131.268 12.2299 131.088 12.1899C130.898 12.1499 130.708 12.1099 130.528 12.0799C130.348 12.0399 130.188 12.0099 130.068 11.9899L129.758 12.5399C130.038 12.6199 130.228 12.7099 130.328 12.8099C130.438 12.8999 130.498 13.0299 130.518 13.1999C130.018 13.2499 129.558 13.3699 129.148 13.5499C128.738 13.7299 128.378 13.9599 128.078 14.2399C127.768 14.5199 127.538 14.8399 127.378 15.1999C127.208 15.5599 127.128 15.9599 127.128 16.3699C127.128 16.8199 127.228 17.2399 127.428 17.6299C127.628 18.0199 127.908 18.3599 128.258 18.6499C128.608 18.9399 129.028 19.1599 129.518 19.3299C130.008 19.4899 130.538 19.5799 131.118 19.5799C131.698 19.5799 132.228 19.4999 132.718 19.3299C133.208 19.1599 133.638 18.9399 133.998 18.6499C134.358 18.3599 134.638 18.0199 134.838 17.6299C135.038 17.2399 135.138 16.8199 135.138 16.3699C135.138 15.9699 135.058 15.5799 134.898 15.2299C134.738 14.8699 134.518 14.5499 134.228 14.2799C133.938 14.0099 133.598 13.7799 133.198 13.5899C132.798 13.4099 132.358 13.2799 131.878 13.2199H131.888ZM129.468 7.01992C129.028 7.70992 128.528 8.37992 127.958 9.01992C127.388 9.65992 126.768 10.2699 126.098 10.8299C125.428 11.3999 124.718 11.9199 123.968 12.3999C123.218 12.8799 122.458 13.2999 121.678 13.6699L121.238 13.0999C122.008 12.6899 122.758 12.1899 123.488 11.6099C124.218 11.0299 124.898 10.4099 125.528 9.74992C126.158 9.08992 126.718 8.39992 127.208 7.66992C127.698 6.94992 128.088 6.23992 128.368 5.53992C128.098 5.53992 127.818 5.53992 127.538 5.53992C127.248 5.53992 126.978 5.55992 126.728 5.56992C126.468 5.57992 126.238 5.59992 126.028 5.60992C125.808 5.61992 125.648 5.62992 125.528 5.64992C125.408 5.64992 125.238 5.66992 125.028 5.67992C124.818 5.68992 124.588 5.70992 124.338 5.74992C124.088 5.77992 123.838 5.80992 123.588 5.83992C123.338 5.86992 123.118 5.90992 122.918 5.95992L121.948 4.45992C122.078 4.48992 122.278 4.50992 122.528 4.52992C122.778 4.54992 123.038 4.57992 123.328 4.59992C123.608 4.62992 123.878 4.63992 124.158 4.65992C124.428 4.67992 124.668 4.68992 124.878 4.68992C125.378 4.68992 125.888 4.66992 126.398 4.63992C126.918 4.60992 127.408 4.56992 127.878 4.52992C128.348 4.48992 128.768 4.43992 129.148 4.37992C129.528 4.32992 129.818 4.26992 130.038 4.22992L130.698 4.64992C130.588 4.92992 130.468 5.20992 130.338 5.47992C130.208 5.74992 130.068 6.02992 129.888 6.31992C130.158 6.33992 130.438 6.36992 130.748 6.38992C131.058 6.41992 131.318 6.41992 131.548 6.40992C131.858 6.39992 132.188 6.38992 132.548 6.36992C132.918 6.35992 133.258 6.33992 133.578 6.31992V4.16992C133.578 3.78992 133.398 3.48992 133.038 3.24992C132.678 3.00992 132.098 2.79992 131.288 2.59992L131.618 1.91992C131.908 1.95992 132.228 1.99992 132.588 2.05992C132.938 2.11992 133.298 2.16992 133.648 2.23992C133.998 2.30992 134.338 2.36992 134.658 2.42992C134.978 2.48992 135.268 2.53992 135.508 2.57992C135.488 2.68992 135.458 2.81992 135.438 2.97992C135.408 3.13992 135.388 3.29992 135.368 3.45992C135.348 3.61992 135.328 3.76992 135.308 3.90992C135.298 4.03992 135.288 4.13992 135.288 4.19992V9.95992C135.288 10.1799 135.288 10.4399 135.258 10.7399C135.238 11.0399 135.218 11.3399 135.178 11.6299C135.148 11.9199 135.118 12.1999 135.078 12.4599C135.038 12.7199 134.998 12.9199 134.968 13.0699L133.708 13.2699C133.688 13.1399 133.668 12.9699 133.658 12.7699C133.648 12.5799 133.628 12.3699 133.608 12.1699C133.588 11.9599 133.578 11.7499 133.568 11.5399C133.568 11.3299 133.568 11.1299 133.568 10.9599V10.4499C132.808 10.4699 132.018 10.5199 131.188 10.5799C130.348 10.6399 129.598 10.7199 128.928 10.8199L128.328 9.40992C128.458 9.42992 128.628 9.45992 128.828 9.47992C129.028 9.49992 129.238 9.51992 129.468 9.53992C129.688 9.55992 129.918 9.56992 130.148 9.57992C130.368 9.57992 130.578 9.57992 130.758 9.57992C131.108 9.56992 131.558 9.55992 132.088 9.54992C132.628 9.54992 133.118 9.52992 133.568 9.49992V7.25992C132.878 7.28992 132.198 7.32992 131.548 7.38992C130.898 7.44992 130.298 7.52992 129.748 7.62992L129.478 6.98992L129.468 7.01992ZM118.308 19.0199L118.548 17.5699C118.028 17.6599 117.398 17.7299 116.678 17.7899C115.948 17.8499 115.218 17.8999 114.468 17.9499C113.718 17.9899 112.998 18.0199 112.298 18.0399C111.608 18.0599 111.028 18.0599 110.588 18.0399C110.308 18.0299 110.128 17.9899 110.058 17.9399C109.978 17.8799 109.948 17.7399 109.948 17.5099V16.4099C109.948 16.1799 109.958 15.9199 109.978 15.6399C109.998 15.3499 110.028 15.1399 110.058 14.9899C109.878 14.9699 109.648 14.9299 109.358 14.8899C109.078 14.8499 108.788 14.8099 108.488 14.7699C108.188 14.7399 107.898 14.6999 107.618 14.6599C107.338 14.6199 107.118 14.5899 106.948 14.5699L106.638 15.2499C106.998 15.3499 107.288 15.4299 107.508 15.5099C107.728 15.5799 107.888 15.6799 107.998 15.7799C108.108 15.8899 108.168 16.0299 108.198 16.1899C108.218 16.3599 108.238 16.5699 108.238 16.8399V18.0999C108.238 18.3599 108.328 18.5999 108.518 18.7899C108.708 18.9799 109.018 19.0699 109.458 19.0499C109.998 19.0099 110.618 18.9799 111.318 18.9699C112.028 18.9499 112.768 18.9399 113.558 18.9299C114.348 18.9199 115.148 18.9299 115.958 18.9299C116.778 18.9499 117.558 18.9699 118.318 19.0099L118.308 19.0199ZM114.638 5.83992L114.858 4.50992C114.258 4.61992 113.568 4.70992 112.788 4.77992C111.998 4.84992 111.218 4.90992 110.438 4.94992C109.658 4.98992 108.928 5.01992 108.238 5.03992C107.548 5.05992 106.998 5.06992 106.588 5.06992C106.418 5.06992 106.208 5.06992 105.958 5.03992C105.708 5.01992 105.458 4.99992 105.188 4.96992C104.918 4.93992 104.678 4.91992 104.428 4.88992C104.188 4.85992 103.988 4.81992 103.828 4.78992L104.558 6.24992C104.708 6.21992 104.898 6.19992 105.138 6.16992C105.378 6.13992 105.618 6.10992 105.868 6.09992C106.118 6.07992 106.358 6.06992 106.588 6.04992C106.818 6.02992 107.008 6.01992 107.158 5.99992C107.418 5.98992 107.738 5.97992 108.138 5.96992C108.538 5.95992 108.958 5.94992 109.428 5.92992C109.888 5.91992 110.368 5.90992 110.868 5.88992C111.368 5.87992 111.848 5.85992 112.318 5.84992C112.788 5.83992 113.218 5.82992 113.628 5.82992H114.648L114.638 5.83992ZM111.938 4.18992L112.228 3.01992C111.948 3.05992 111.648 3.08992 111.328 3.12992C111.008 3.16992 110.708 3.19992 110.408 3.22992C110.108 3.25992 109.838 3.27992 109.588 3.28992C109.338 3.29992 109.138 3.30992 108.998 3.30992C108.838 3.30992 108.648 3.30992 108.418 3.27992C108.198 3.25992 107.958 3.23992 107.728 3.20992C107.488 3.17992 107.268 3.13992 107.048 3.10992C106.838 3.06992 106.658 3.03992 106.508 2.99992L107.258 4.36992C107.408 4.35992 107.578 4.33992 107.768 4.31992C107.968 4.29992 108.158 4.27992 108.348 4.26992C108.538 4.24992 108.708 4.23992 108.868 4.22992C109.028 4.22992 109.148 4.22992 109.228 4.22992C109.388 4.22992 109.578 4.22992 109.808 4.22992C110.028 4.22992 110.268 4.21992 110.518 4.20992C110.768 4.20992 111.018 4.20992 111.258 4.20992H111.928L111.938 4.18992ZM107.538 9.02992C107.538 9.25992 107.588 9.47992 107.688 9.68992C107.788 9.89992 107.918 10.0899 108.098 10.2599C108.278 10.4199 108.478 10.5499 108.708 10.6499C108.938 10.7499 109.188 10.7999 109.458 10.7999C109.728 10.7999 109.958 10.7499 110.188 10.6599C110.418 10.5699 110.618 10.4399 110.798 10.2899C110.978 10.1299 111.108 9.93992 111.208 9.72992C111.308 9.50992 111.358 9.27992 111.358 9.03992C111.358 8.79992 111.308 8.57992 111.208 8.36992C111.108 8.14992 110.978 7.95992 110.808 7.78992C110.638 7.62992 110.438 7.49992 110.208 7.39992C109.978 7.29992 109.728 7.24992 109.458 7.24992C108.908 7.24992 108.458 7.41992 108.088 7.74992C107.728 8.07992 107.538 8.50992 107.538 9.02992ZM108.598 11.7099C108.188 11.6399 107.808 11.5199 107.458 11.3499C107.108 11.1799 106.808 10.9799 106.558 10.7599C106.298 10.5299 106.108 10.2799 105.958 9.99992C105.818 9.71992 105.748 9.42992 105.748 9.11992C105.748 8.72992 105.848 8.36992 106.038 8.03992C106.228 7.70992 106.498 7.42992 106.828 7.17992C107.158 6.93992 107.558 6.74992 107.998 6.60992C108.448 6.47992 108.928 6.40992 109.438 6.40992C109.988 6.40992 110.488 6.48992 110.938 6.63992C111.388 6.78992 111.778 6.98992 112.108 7.23992C112.438 7.48992 112.688 7.77992 112.878 8.10992C113.058 8.43992 113.148 8.76992 113.148 9.11992C113.148 9.42992 113.078 9.72992 112.938 9.99992C112.798 10.2699 112.598 10.5299 112.348 10.7599C112.088 10.9899 111.788 11.1899 111.448 11.3499C111.098 11.5099 110.728 11.6199 110.328 11.6999V12.8199C111.258 12.7399 112.148 12.6299 112.998 12.4999C113.858 12.3699 114.678 12.2299 115.458 12.0699V4.19992C115.458 3.81992 115.288 3.51992 114.928 3.27992C114.578 3.03992 113.988 2.82992 113.178 2.62992L113.508 1.94992C113.818 1.98992 114.138 2.02992 114.498 2.08992C114.848 2.14992 115.198 2.19992 115.558 2.26992C115.908 2.33992 116.248 2.39992 116.578 2.45992C116.898 2.51992 117.178 2.56992 117.408 2.60992C117.388 2.71992 117.358 2.84992 117.338 3.00992C117.308 3.16992 117.288 3.32992 117.258 3.49992C117.238 3.65992 117.218 3.80992 117.208 3.94992C117.198 4.07992 117.188 4.17992 117.188 4.23992V9.60992C117.728 9.56992 118.318 9.50992 118.988 9.43992C119.648 9.35992 120.258 9.26992 120.808 9.17992L120.608 10.6299C120.398 10.6199 120.158 10.6099 119.868 10.6099H117.198V12.3099C117.198 12.5899 117.198 12.8899 117.168 13.2099C117.148 13.5299 117.128 13.8499 117.108 14.1799C117.088 14.4999 117.048 14.8099 117.008 15.0899C116.968 15.3799 116.928 15.6199 116.888 15.8099L115.628 16.0299C115.608 15.8799 115.588 15.6799 115.568 15.4199C115.568 15.1599 115.538 14.8799 115.528 14.5799C115.508 14.2799 115.498 13.9799 115.488 13.6999C115.488 13.4099 115.488 13.1499 115.488 12.9299V12.8899C114.758 13.0499 114.008 13.1899 113.238 13.3199C112.468 13.4499 111.718 13.5599 110.978 13.6699C110.238 13.7799 109.518 13.8699 108.828 13.9499C108.138 14.0299 107.508 14.0999 106.938 14.1399C106.808 14.1499 106.618 14.1699 106.368 14.1899C106.128 14.2099 105.868 14.2299 105.588 14.2599C105.318 14.2899 105.048 14.3199 104.768 14.3499C104.498 14.3799 104.258 14.4099 104.048 14.4499L103.158 12.9299C103.358 12.9699 103.588 12.9999 103.848 13.0199C104.118 13.0399 104.388 13.0699 104.668 13.0899C104.948 13.1099 105.218 13.1199 105.458 13.1199C105.708 13.1199 105.918 13.1199 106.088 13.1199C106.518 13.0999 106.938 13.0799 107.358 13.0599C107.778 13.0399 108.198 13.0099 108.608 12.9799V11.7299L108.598 11.7099ZM97.0378 1.94992L96.7078 2.62992C97.5078 2.82992 98.0878 3.03992 98.4478 3.27992C98.8078 3.51992 98.9878 3.82992 98.9878 4.19992V15.6699C98.9878 16.0299 98.9878 16.3999 98.9878 16.7999C98.9878 17.1999 99.0078 17.5799 99.0278 17.9499C99.0478 18.3199 99.0678 18.6699 99.0778 18.9999C99.0978 19.3299 99.1178 19.5899 99.1478 19.7899L100.368 19.6199C100.418 19.3499 100.458 18.9999 100.498 18.5499C100.528 18.1099 100.568 17.6399 100.598 17.1499C100.628 16.6599 100.648 16.1599 100.668 15.6699C100.688 15.1799 100.698 14.7399 100.698 14.3599V4.22992C100.698 4.16992 100.698 4.06992 100.718 3.93992C100.728 3.80992 100.748 3.65992 100.768 3.48992C100.788 3.32992 100.808 3.15992 100.838 2.99992C100.868 2.83992 100.898 2.70992 100.918 2.59992C100.678 2.55992 100.388 2.50992 100.068 2.44992C99.7478 2.38992 99.4078 2.32992 99.0578 2.25992C98.6978 2.18992 98.3478 2.13992 97.9978 2.07992C97.6478 2.02992 97.3178 1.97992 97.0278 1.93992L97.0378 1.94992ZM92.7278 8.81992C93.3978 9.49992 94.1378 10.2099 94.9378 10.9199C95.7378 11.6399 96.5778 12.3199 97.4378 12.9499L96.1078 14.2699C95.4978 13.5499 94.8678 12.7999 94.2078 12.0099C93.5478 11.2199 92.8778 10.4399 92.1978 9.66992C91.5578 10.6099 90.8278 11.4899 89.9878 12.3099C89.1478 13.1199 88.1778 13.9199 87.0878 14.6799L86.5578 14.1899C87.2778 13.6299 87.9278 13.0099 88.5278 12.3399C89.1278 11.6699 89.6578 10.9699 90.1278 10.2499C90.5978 9.53992 90.9978 8.80992 91.3278 8.06992C91.6678 7.32992 91.9278 6.60992 92.1078 5.91992C92.1678 5.71992 92.1878 5.59992 92.1778 5.52992C92.1578 5.46992 92.1178 5.38992 92.0578 5.28992C91.9678 5.18992 91.8278 5.07992 91.6178 4.95992C91.4078 4.83992 91.1678 4.71992 90.9078 4.58992L91.2578 4.03992C91.7578 4.15992 92.3078 4.30992 92.8978 4.48992C93.4978 4.66992 94.0278 4.82992 94.5078 4.98992C94.2778 5.68992 94.0178 6.34992 93.7278 6.97992C93.4378 7.60992 93.1078 8.21992 92.7278 8.81992ZM78.6978 15.7299C79.1878 15.6999 79.6278 15.6899 80.0278 15.6699C80.4278 15.6699 80.7578 15.6499 81.0178 15.6399C81.8378 15.5999 82.6678 15.5399 83.5078 15.4699C84.3478 15.3899 85.1078 15.2999 85.7578 15.1999L85.5378 16.6999C85.0478 16.6799 84.4178 16.6599 83.6378 16.6399C82.8578 16.6299 82.0578 16.6099 81.2478 16.5999C80.9078 16.5999 80.4978 16.5999 80.0078 16.5999C79.5178 16.5999 78.9978 16.6199 78.4278 16.6399C77.8578 16.6599 77.2878 16.6799 76.6878 16.6999C76.0978 16.7199 75.5378 16.7299 74.9978 16.7499C74.4578 16.7699 73.9778 16.7899 73.5478 16.8199C73.1178 16.8499 72.7778 16.8599 72.5378 16.8699C72.0778 16.8999 71.5878 16.9299 71.0578 16.9799C70.5378 17.0299 70.0478 17.0799 69.5978 17.1399L69.0078 15.5299C69.5578 15.5899 70.1378 15.6399 70.7478 15.6899C71.3578 15.7299 71.9478 15.7699 72.5078 15.7899C72.7378 15.7999 73.0178 15.8099 73.3478 15.8099H74.4378C74.8378 15.8099 75.2378 15.8099 75.6678 15.8099C76.0978 15.8099 76.5278 15.7899 76.9678 15.7799V11.4399C76.2678 11.4499 75.6078 11.4699 74.9978 11.4899C74.3878 11.5099 73.8578 11.5299 73.3878 11.5499C72.9578 11.5699 72.6478 11.4699 72.4378 11.2399C72.2278 11.0099 72.1278 10.7199 72.1278 10.3799V6.25992C72.1278 5.99992 72.1078 5.79992 72.0778 5.63992C72.0378 5.47992 71.9678 5.33992 71.8578 5.22992C71.7478 5.11992 71.5878 5.01992 71.3878 4.93992C71.1778 4.85992 70.8978 4.76992 70.5478 4.66992L70.8578 4.02992C71.3678 4.10992 71.9778 4.17992 72.6878 4.21992C73.3978 4.25992 74.1378 4.28992 74.9178 4.28992C75.6978 4.28992 76.4878 4.28992 77.2978 4.26992C78.1078 4.24992 78.8778 4.22992 79.6178 4.18992C80.3578 4.14992 81.0178 4.10992 81.6178 4.05992C82.2178 4.00992 82.6978 3.95992 83.0578 3.88992L82.7678 5.29992C82.0278 5.26992 81.2478 5.23992 80.4378 5.21992C79.6178 5.19992 78.8178 5.18992 78.0278 5.19992C77.2378 5.19992 76.4778 5.21992 75.7678 5.23992C75.0478 5.25992 74.4178 5.27992 73.8678 5.31992V10.0099C73.8678 10.2399 73.9078 10.3799 73.9778 10.4399C74.0478 10.4999 74.2278 10.5299 74.5078 10.5399C74.8178 10.5399 75.1878 10.5399 75.6278 10.5399C76.0678 10.5399 76.5478 10.5199 77.0578 10.4999C77.5778 10.4799 78.1078 10.4599 78.6678 10.4299C79.2178 10.3999 79.7678 10.3599 80.3178 10.3199C80.8578 10.2799 81.3778 10.2299 81.8678 10.1799C82.3578 10.1299 82.7878 10.0799 83.1778 10.0299L82.9078 11.4799C82.2878 11.4499 81.6178 11.4399 80.8978 11.4199C80.1778 11.4099 79.4578 11.4099 78.7278 11.4199V15.6999L78.6978 15.7299Z" fill="#231815"/>
</g>
<defs>
<clipPath id="clip0_1420_1931">
<rect width="258.82" height="30.48" fill="white" transform="translate(0.5 0.259766)"/>
</clipPath>
</defs>
</svg>
