<svg width="89" height="40" viewBox="0 0 89 40" fill="none" xmlns="http://www.w3.org/2000/svg">
<path fill-rule="evenodd" clip-rule="evenodd" d="M88.347 39.641V0H69.5469V39.6512C75.817 39.6512 82.0769 39.6512 88.347 39.641Z" fill="black"/>
<path fill-rule="evenodd" clip-rule="evenodd" d="M32.3306 39.5816C43.5287 39.6123 54.7268 39.6429 65.9249 39.6532V21.1929C65.9249 20.2827 65.6482 19.3315 64.8184 18.8406C64.1832 18.4725 63.3738 18.4622 62.7078 18.769C53.3846 23.1566 44.0614 27.5236 34.7382 31.8907C33.0375 32.7395 32.3203 34.0998 32.3203 35.9816V39.5611L32.3306 39.5816Z" fill="black"/>
<path fill-rule="evenodd" clip-rule="evenodd" d="M35.3427 27.6239C44.0307 23.5432 52.7392 19.4932 61.4169 15.3921C63.9783 14.175 65.679 12.4978 65.9146 9.54206V0H32.3203V25.4353C32.3715 27.2046 33.6317 28.2376 35.3427 27.6137V27.6239Z" fill="black"/>
<path fill-rule="evenodd" clip-rule="evenodd" d="M28.6745 39.645V24.2836C28.4491 21.2461 27.5885 20.3972 25.1707 18.8733L0.5 4.71875V39.6552C9.89493 39.6552 19.2796 39.6654 28.6745 39.645Z" fill="black"/>
<path fill-rule="evenodd" clip-rule="evenodd" d="M28.6745 0H0.5V0.49091C8.97285 5.34887 17.4457 10.2171 25.9288 15.0853C27.3324 15.7091 28.6745 14.9114 28.6745 13.3466V0Z" fill="black"/>
</svg>
